<svg width="491" height="525" viewBox="0 0 491 525" fill="none" xmlns="http://www.w3.org/2000/svg">
<rect width="491" height="525" fill="#F5F5F5"/>
<g id="undraw_compose_music_re_wpiw 1" clip-path="url(#clip0_0_1)">
<rect width="491" height="525" fill="white"/>
<g id="Group">
<path id="Vector" d="M212.683 516.477L201.147 516.476L195.659 469.997L212.685 469.998L212.683 516.477Z" fill="#A0616A"/>
<path id="Vector_2" d="M173.159 516.204C172.8 516.836 172.61 518.875 172.61 519.61C172.61 521.869 174.363 523.7 176.526 523.7H212.251C213.726 523.7 214.922 522.451 214.922 520.91V519.356C214.922 519.356 216.69 514.687 213.051 508.931C213.051 508.931 208.529 513.438 201.771 506.379L199.779 502.609L185.354 513.628L177.359 514.656C175.61 514.881 174.059 514.621 173.159 516.204H173.159V516.204Z" fill="#2F2E41"/>
</g>
<g id="Group_2">
<path id="Vector_3" d="M160.995 516.477L149.459 516.476L143.972 469.997L160.998 469.998L160.995 516.477Z" fill="#A0616A"/>
<path id="Vector_4" d="M121.472 516.204C121.112 516.836 120.923 518.875 120.923 519.61C120.923 521.869 122.676 523.7 124.838 523.7H160.564C162.039 523.7 163.235 522.451 163.235 520.91V519.356C163.235 519.356 165.002 514.687 161.364 508.931C161.364 508.931 156.842 513.438 150.084 506.379L148.091 502.609L133.667 513.628L125.672 514.656C123.922 514.881 122.372 514.621 121.472 516.204H121.472V516.204Z" fill="#2F2E41"/>
</g>
<path id="Vector_5" d="M213.673 224.882L224.414 253.63L216.023 483.263H192.529L171.384 276.067L166.349 483.964L143.526 483.263L118.689 252.578L135.135 231.893L213.673 224.882Z" fill="#2F2E41"/>
<path id="shirt" d="M162.993 61.8593L191.186 59.7558L199.912 74.4804L226.092 82.1933L216.358 153.362L226.763 259.59C226.763 259.59 189.172 253.98 186.487 265.199C183.802 276.418 118.018 253.98 118.018 253.98L140.506 181.409L138.492 124.614L132.45 91.6591L159.972 78.3369L162.993 61.8593V61.8593Z" fill="#E6E6E6"/>
<path id="Vector_6" d="M150.239 82.8945C150.239 82.8945 127.773 82.5439 124.741 92.3603C121.71 102.177 111.641 170.19 111.641 170.19L103.922 199.99L138.492 182.11L131.108 170.21L155.273 121.809L150.239 82.8945H150.239Z" fill="#E6E6E6"/>
<path id="Vector_7" d="M163.983 191.927C167.698 191.931 171.151 189.694 172.595 186.119C173.687 183.416 173.584 180.822 172.767 178.598C173.03 178.484 173.291 178.366 173.56 178.265C173.165 178.098 172.78 177.908 172.396 177.719C171.058 174.933 168.492 172.911 165.437 172.42C161.652 168.185 159.325 162.511 159.301 156.266C159.251 143.394 169.247 132.643 181.566 132.334C181.663 132.332 181.76 132.33 181.856 132.329C187.373 132.262 192.377 135.485 195.172 140.454C196.802 143.353 199.816 145.299 203.269 145.299C205.912 145.299 208.297 144.157 210.001 142.321C213.715 138.321 218.365 135.344 223.627 134.431C227.083 133.831 230.66 133.605 234.32 133.795C259.372 135.096 280.925 158.288 281.459 184.482C282.055 213.657 259.592 237.503 231.798 237.503C217.335 237.503 204.322 231.042 195.247 220.737C191.218 216.161 185.572 213.598 179.621 213.662C179.56 213.663 179.5 213.663 179.439 213.663C169.8 213.663 161.986 205.501 161.986 195.432C161.986 194.874 162.013 194.322 162.062 193.778C162.156 192.76 163.004 191.925 163.983 191.927L163.983 191.927Z" fill="#F9A826"/>
<g id="Group_3">
<path id="Vector_8" d="M488.644 386.073C487.425 383.926 482.15 386.225 481.18 384.276C480.214 382.334 485.115 379.375 487.915 372.616C488.42 371.396 491.602 363.715 489.246 361.344C484.781 356.851 464.349 375.393 457.199 369.325C455.629 367.993 454.533 365.335 449.784 361.019C447.894 359.302 446.752 358.527 445.646 358.816C444.077 359.225 443.953 361.418 442.271 365.731C439.748 372.198 438.255 371.808 436.785 376.968C435.694 380.798 435.943 383.025 434.659 383.459C432.842 384.073 431.169 380.01 428.866 380.374C426.516 380.745 425.096 385.476 424.647 389.018C423.805 395.665 426.142 400.05 427.437 404.662C428.844 409.674 429.68 417.296 426.429 428.086L394.257 522.771C401.359 503.342 421.925 450.082 430.567 430.29C433.062 424.576 435.816 418.781 441.472 416.494C446.917 414.292 454.396 415.607 463.93 413.207C465.043 412.927 468.133 412.106 468.522 410.208C468.843 408.638 467.026 407.762 467.305 406.292C467.68 404.321 471.254 404.297 475.646 402.022C478.743 400.418 480.672 398.51 482.331 396.87C482.832 396.375 490.267 388.932 488.644 386.073V386.073Z" fill="#F2F2F2"/>
<path id="Vector_9" d="M362.068 435.92C360.707 435.925 360.265 439.293 359.07 439.228C357.878 439.163 357.902 435.796 355.534 432.41C355.107 431.8 352.415 427.952 350.622 428.476C347.223 429.469 350.039 445.293 345.125 447.208C344.047 447.629 342.481 447.424 339.083 448.613C337.731 449.087 337.037 449.449 336.854 450.099C336.593 451.021 337.588 451.718 339.129 453.825C341.44 456.984 340.826 457.637 342.826 459.879C344.311 461.544 345.43 462.059 345.263 462.842C345.027 463.951 342.635 463.636 342.142 464.922C341.638 466.234 343.451 468.327 344.986 469.579C347.866 471.928 350.601 471.996 353.142 472.662C355.903 473.387 359.725 475.158 363.857 479.938L399.065 523.751C391.985 514.504 372.893 488.593 366.087 478.452C364.122 475.525 362.194 472.44 362.751 468.881C363.287 465.454 366.063 461.999 367.686 456.419C367.876 455.767 368.382 453.946 367.602 453.199C366.957 452.582 366.021 453.261 365.411 452.693C364.593 451.932 365.613 450.093 365.811 447.185C365.951 445.135 365.611 443.595 365.319 442.271C365.231 441.872 363.879 435.912 362.068 435.92V435.92Z" fill="#F2F2F2"/>
<path id="Vector_10" d="M389.218 442.286L388.398 434.64L388.773 434.061C390.506 431.38 391.39 428.763 391.4 426.279C391.402 425.884 391.385 425.488 391.367 425.086C391.296 423.491 391.208 421.509 392.197 419.198C392.752 417.909 394.311 414.926 396.654 415.296C397.285 415.388 397.762 415.691 398.124 416.045C398.177 415.957 398.232 415.868 398.29 415.772C399.02 414.609 399.598 414.111 400.155 413.631C400.582 413.262 401.024 412.881 401.717 411.981C402.021 411.586 402.258 411.238 402.457 410.947C403.063 410.065 403.855 409.012 405.251 409.031C406.743 409.105 407.524 410.393 408.041 411.246C408.966 412.767 409.384 413.863 409.662 414.591C409.763 414.856 409.877 415.155 409.936 415.248C410.416 415.986 414.324 415.296 415.796 415.045C419.102 414.469 421.963 413.97 423.141 416.148C423.986 417.706 423.359 419.766 421.221 422.435C420.554 423.266 419.846 423.897 419.217 424.392C419.738 424.717 420.205 425.215 420.394 425.998C420.839 427.851 419.314 429.708 415.863 431.524C415.006 431.978 413.852 432.584 412.235 432.876C411.473 433.012 410.788 433.045 410.201 433.064C410.188 433.418 410.109 433.802 409.902 434.197C409.296 435.36 408.034 435.914 406.133 435.781C404.041 435.666 402.318 435.249 400.798 434.884C399.471 434.566 398.328 434.297 397.43 434.36C395.765 434.5 394.482 435.892 392.977 437.697L389.218 442.286V442.286Z" fill="#F2F2F2"/>
<path id="Vector_11" d="M393.022 396.764L386.15 399.532L385.518 399.3C382.596 398.229 379.948 398 377.645 398.619C377.279 398.718 376.917 398.836 376.549 398.956C375.09 399.432 373.277 400.024 370.886 399.61C369.552 399.376 366.394 398.558 366.142 396.097C366.067 395.436 366.226 394.877 366.463 394.421C366.367 394.39 366.271 394.357 366.168 394.323C364.906 393.88 364.298 393.423 363.712 392.982C363.262 392.644 362.797 392.294 361.788 391.822C361.345 391.615 360.963 391.464 360.643 391.336C359.672 390.948 358.497 390.415 358.16 389C357.85 387.474 358.845 386.358 359.503 385.618C360.677 384.299 361.586 383.598 362.189 383.133C362.41 382.964 362.658 382.772 362.728 382.689C363.29 382.016 361.66 378.244 361.054 376.82C359.682 373.626 358.495 370.861 360.213 369.118C361.441 367.869 363.508 367.981 366.522 369.464C367.46 369.927 368.225 370.482 368.842 370.993C369.011 370.383 369.354 369.786 370.031 369.396C371.634 368.476 373.74 369.546 376.298 372.572C376.936 373.323 377.789 374.335 378.469 375.895C378.789 376.63 378.994 377.314 379.16 377.902C379.491 377.825 379.867 377.808 380.285 377.917C381.515 378.234 382.348 379.369 382.708 381.323C383.132 383.467 383.183 385.313 383.23 386.941C383.273 388.363 383.313 389.586 383.599 390.478C384.151 392.124 385.765 393.067 387.819 394.13L393.022 396.764L393.022 396.764Z" fill="#F2F2F2"/>
<path id="Vector_12" d="M389.218 374.24L388.398 366.595L388.773 366.015C390.506 363.335 391.39 360.718 391.4 358.233C391.402 357.838 391.385 357.443 391.367 357.041C391.296 355.446 391.208 353.463 392.197 351.152C392.752 349.864 394.311 346.881 396.654 347.25C397.285 347.343 397.762 347.645 398.124 348C398.177 347.911 398.232 347.822 398.29 347.726C399.02 346.564 399.598 346.065 400.155 345.585C400.582 345.216 401.024 344.836 401.717 343.935C402.021 343.54 402.258 343.193 402.457 342.901C403.063 342.019 403.855 340.967 405.251 340.985C406.743 341.059 407.524 342.348 408.041 343.2C408.966 344.721 409.384 345.818 409.662 346.545C409.763 346.811 409.877 347.11 409.936 347.202C410.416 347.941 414.324 347.25 415.796 346.999C419.102 346.423 421.963 345.925 423.141 348.103C423.986 349.661 423.359 351.721 421.221 354.39C420.554 355.221 419.846 355.852 419.217 356.347C419.738 356.671 420.205 357.17 420.394 357.952C420.839 359.806 419.314 361.663 415.863 363.479C415.006 363.933 413.852 364.538 412.235 364.83C411.473 364.967 410.788 365 410.201 365.018C410.188 365.373 410.109 365.757 409.902 366.152C409.296 367.315 408.034 367.868 406.133 367.735C404.041 367.621 402.318 367.204 400.798 366.838C399.471 366.521 398.328 366.251 397.43 366.314C395.765 366.454 394.482 367.846 392.977 369.651L389.218 374.24V374.24Z" fill="#F2F2F2"/>
<path id="Vector_13" d="M396.707 522.647L395.173 521.643L394.802 519.793L395.173 521.643L393.385 521.857C393.357 521.683 393.259 521.284 393.113 520.661C392.312 517.242 389.872 506.839 387.836 490.455C386.415 479.018 385.611 467.26 385.445 455.502C385.279 443.725 385.813 434.81 386.24 427.644C386.564 422.24 386.956 417.093 387.341 412.08C388.366 398.687 389.333 386.035 388.614 372.029C388.455 368.902 388.121 362.394 384.48 355.468C382.369 351.451 379.46 347.885 375.834 344.873L378.089 341.912C382.091 345.242 385.309 349.192 387.654 353.652C391.69 361.33 392.054 368.422 392.229 371.83C392.961 386.083 391.984 398.856 390.948 412.379C390.566 417.374 390.174 422.498 389.852 427.881C389.428 434.98 388.9 443.818 389.064 455.443C389.227 467.061 390.022 478.675 391.423 489.968C393.434 506.145 395.839 516.393 396.629 519.76C397.05 521.558 397.138 521.934 396.707 522.647V522.647Z" fill="#F2F2F2"/>
<path id="Vector_14" d="M369.197 350.879C369.048 350.879 368.898 350.876 368.746 350.864C365.664 350.691 362.81 348.764 360.262 345.139C359.067 343.433 358.456 341.487 357.237 337.607C357.048 337.009 356.129 333.975 355.57 329.8C355.205 327.071 355.25 325.931 355.768 324.923C356.343 323.801 357.272 323.018 358.318 322.49C358.272 322.128 358.309 321.755 358.46 321.375C359.076 319.799 360.716 320.005 361.603 320.105C362.052 320.164 362.612 320.242 363.217 320.209C364.167 320.161 364.678 319.865 365.452 319.422C366.193 318.998 367.113 318.47 368.479 318.178C371.172 317.591 373.429 318.388 374.173 318.651C378.087 320.013 380.017 323.191 382.25 326.872C382.696 327.61 384.224 330.298 385.233 333.982C385.961 336.64 385.859 337.822 385.64 338.7C385.194 340.505 384.143 341.539 381.473 343.821C378.684 346.209 377.285 347.405 376.083 348.133C373.286 349.82 371.529 350.879 369.197 350.879V350.879Z" fill="#F2F2F2"/>
</g>
<path id="Vector_15" d="M246.565 176.501L79.4205 143.546L78.7492 156.167L244.552 197.536L246.565 176.501Z" fill="#F9A826"/>
<path id="Vector_16" d="M81.4343 145.649L79.4205 143.546C79.4205 143.546 70.6941 139.339 70.6941 138.638C70.6941 138.199 57.8082 133.639 48.1672 130.29C42.7829 128.419 37.0967 132.121 36.3301 137.994L35.1219 147.248C34.3995 152.782 38.3966 157.762 43.7389 157.986L67.3377 158.972L78.7492 156.167L81.4343 145.649V145.649Z" fill="#F9A826"/>
<path id="Vector_17" d="M246.23 180.357L246.628 178.611L79.3766 145.211L79.0849 147.402L246.23 180.357Z" fill="#3F3D56"/>
<path id="Vector_18" d="M245.847 183.674L246.23 181.76L79.1947 148.668L79.0849 150.908L245.847 183.674Z" fill="#3F3D56"/>
<path id="Vector_19" d="M245.463 187.649L245.558 184.564L79.0636 151.185L79.0849 153.012L245.463 187.649Z" fill="#3F3D56"/>
<path id="Vector_20" d="M245.017 192.266L244.887 189.473L78.8207 153.702L78.6778 154.387L245.017 192.266Z" fill="#3F3D56"/>
<path id="Vector_21" d="M245.014 195.065L244.887 192.978L79.0704 154.859L78.9216 155.542L245.014 195.065Z" fill="#3F3D56"/>
<path id="Vector_22" d="M148.97 78.424L157.287 73.6136L160.895 150.558L159.637 160.023C159.637 160.023 138.64 99.5463 148.97 78.424H148.97Z" fill="#3F3D56"/>
<path id="Vector_23" d="M177.425 54.497C188.918 54.497 198.234 44.7654 198.234 32.7607C198.234 20.7561 188.918 11.0244 177.425 11.0244C165.932 11.0244 156.616 20.7561 156.616 32.7607C156.616 44.7654 165.932 54.497 177.425 54.497Z" fill="#A0616A"/>
<path id="Vector_24" d="M159.637 45.7324L164.611 49.8807L158.965 27.502C158.965 27.502 174.74 27.1514 176.083 18.0361C176.083 18.0361 188.501 17.6856 191.857 17.6856C195.214 17.6856 196.728 40.8833 196.728 40.8833C196.728 40.8833 203.269 21.8926 196.556 12.0762C189.843 2.2598 192.193 8.21975 190.85 4.7139C189.508 1.20805 175.747 -2.01624 167.02 1.55863C158.294 5.1335 157.958 10.2294 155.273 10.2763C152.588 10.3233 143.191 24.3467 151.917 35.5654C160.643 46.7842 159.637 45.7324 159.637 45.7324V45.7324Z" fill="#2F2E41"/>
<path id="Vector_25" d="M128.654 160.941C126.824 163.626 125.726 166.52 125.384 169.159L106.403 193.586L117.795 202.681L135.823 176.922C138.098 175.72 140.357 173.69 142.187 171.005C146.368 164.871 146.728 157.646 142.991 154.867C139.254 152.088 132.835 154.807 128.654 160.941L128.654 160.941Z" fill="#A0616A"/>
<g id="arm-movement">
<path id="hand" d="M223.21 188.371C225.676 186.315 227.494 183.848 228.518 181.409L253.199 163.376L244.64 151.36L220.526 170.947C218.022 171.448 215.316 172.752 212.849 174.807C207.215 179.504 204.966 186.347 207.827 190.092C210.688 193.838 217.575 193.067 223.21 188.371V188.371Z" fill="#A0616A"/>
<path id="arm" d="M215.352 86.7509C215.352 86.7509 221.393 76.2334 227.434 82.5439C232.215 87.5374 258.431 119.313 269.166 132.358C272.126 135.955 273.752 140.539 273.752 145.283C273.752 152.621 269.873 159.359 263.669 162.8L230.119 181.409L220.722 166.684L249.586 144.948L205.283 119.706L215.352 86.7509V86.7509Z" fill="#E6E6E6"/>
</g>
<path id="Vector_26" d="M109.265 183.674L103.922 199.99L119.361 208.404L131.108 199.99L138.492 182.11L116.676 175.449" fill="#E6E6E6"/>
<path id="music-1" d="M358.864 27.2958L308.152 41.6852L315.53 76.0575C313.144 74.3852 310.275 73.4077 307.185 73.4077C298.903 73.4077 292.188 80.4215 292.188 89.0733C292.188 97.7251 298.903 104.739 307.185 104.739C315.468 104.739 322.183 97.7252 322.183 89.0733C322.183 86.0661 321.357 83.2669 319.951 80.8812L314.101 53.6297L357.85 39.2624L361.851 59.5621C359.45 57.8556 356.551 56.8564 353.427 56.8564C345.145 56.8564 338.43 63.8702 338.43 72.522C338.43 81.1738 345.145 88.1875 353.427 88.1875C361.71 88.1875 368.425 81.1739 368.425 72.522C368.425 69.4828 367.583 66.6554 366.149 64.2534L358.864 27.2958V27.2958Z" fill="#F9A826"/>
<path id="music-2" d="M408.599 59.4267C400.403 59.4267 393.758 66.3676 393.758 74.9296C393.758 77.35 394.304 79.6316 395.251 81.6727L403.722 118.171L408.53 116.954L401.995 88.7981C403.986 89.8347 406.224 90.4325 408.599 90.4325C416.796 90.4325 423.441 83.4916 423.441 74.9296C423.441 66.3676 416.796 59.4267 408.599 59.4267Z" fill="#F9A826"/>
<path id="music-3" d="M468.998 139.87L460.589 104.739L455.484 105.992L462.061 133.471C460.038 132.514 457.79 131.964 455.41 131.964C446.707 131.964 439.652 139.11 439.652 147.924C439.652 156.738 446.707 163.883 455.41 163.883C464.113 163.883 471.168 156.738 471.168 147.924C471.168 144.982 470.369 142.236 468.998 139.87Z" fill="#F9A826"/>
<path id="Vector_27" d="M491 523.917C491 524.515 490.536 525 489.963 525H0V522.834H489.963C490.536 522.834 491 523.319 491 523.917L491 523.917Z" fill="#E6E6E6"/>
</g>
<defs>
<clipPath id="clip0_0_1">
<rect width="491" height="525" fill="white"/>
</clipPath>
</defs>
</svg>
